HIERARCHY
ROOT Hips
{
	OFFSET 0.000000 0.000000 0.000000 
	CHANNELS 6 Xposition Yposition Zposition Zrotation Yrotation Xrotation
	JOINT LeftUpLeg
	{
		OFFSET 1.363060 -1.794630 0.839290 
		CHANNELS 3 Zrotation Yrotation Xrotation
		JOINT LeftLeg
		{
			OFFSET 2.448110 -6.726130 0.000000 
			CHANNELS 3 Zrotation Yrotation Xrotation
			JOINT LeftFoot
			{
				OFFSET 2.562200 -7.039590 0.000000 
				CHANNELS 3 Zrotation Yrotation Xrotation
				JOINT LeftToeBase
				{
					OFFSET 0.157640 -0.433110 2.322550 
					CHANNELS 3 Zrotation Yrotation Xrotation
					End Site
					{
						OFFSET 0.000000 0.000000 0.000000 
					}
				}
			}
		}
	}
	JOINT RightUpLeg
	{
		OFFSET -1.305520 -1.794630 0.839290 
		CHANNELS 3 Zrotation Yrotation Xrotation
		JOINT RightLeg
		{
			OFFSET -2.542530 -6.985550 0.000000 
			CHANNELS 3 Zrotation Yrotation Xrotation
			JOINT RightFoot
			{
				OFFSET -2.568260 -7.056230 0.000000 
				CHANNELS 3 Zrotation Yrotation Xrotation
				JOINT RightToeBase
				{
					OFFSET -0.164730 -0.452590 2.363150 
					CHANNELS 3 Zrotation Yrotation Xrotation
					End Site
					{
						OFFSET 0.000000 0.000000 0.000000 
					}
				}
			}
		}
	}
	JOINT Spine
	{
		OFFSET 0.028270 2.035590 -0.193380 
		CHANNELS 3 Zrotation Yrotation Xrotation
		JOINT Spine1
		{
			OFFSET 0.056720 2.048850 -0.042750 
			CHANNELS 3 Zrotation Yrotation Xrotation
			JOINT Neck1
			{
				OFFSET -0.054170 1.746240 0.172020 
				CHANNELS 3 Zrotation Yrotation Xrotation
				JOINT Head
				{
					OFFSET 0.104070 1.761360 -0.123970 
					CHANNELS 3 Zrotation Yrotation Xrotation
					End Site
					{
						OFFSET 0.000000 0.000000 0.000000 
					}
				}
			}
			JOINT LeftArm
			{
				OFFSET 3.362410 1.200890 -0.311210 
				CHANNELS 3 Zrotation Yrotation Xrotation
				JOINT LeftForeArm
				{
					OFFSET 4.983000 -0.000000 -0.000000 
					CHANNELS 3 Zrotation Yrotation Xrotation
					JOINT LeftHand
					{
						OFFSET 3.483560 -0.000000 -0.000000 
						CHANNELS 3 Zrotation Yrotation Xrotation
						JOINT LeftHandIndex1
						{
							OFFSET 0.715260 -0.000000 -0.000000 
							CHANNELS 3 Zrotation Yrotation Xrotation
							End Site
							{
								OFFSET 0.000000 0.000000 0.000000 
							}
						}
					}
				}
			}
			JOINT RightArm
			{
				OFFSET -3.136600 1.374050 -0.404650 
				CHANNELS 3 Zrotation Yrotation Xrotation
				JOINT RightForeArm
				{
					OFFSET -5.241900 -0.000000 -0.000000 
					CHANNELS 3 Zrotation Yrotation Xrotation
					JOINT RightHand
					{
						OFFSET -3.444170 -0.000000 -0.000000 
						CHANNELS 3 Zrotation Yrotation Xrotation
						JOINT RightHandIndex1
						{
							OFFSET -0.622530 -0.000000 -0.000000 
							CHANNELS 3 Zrotation Yrotation Xrotation
							End Site
							{
								OFFSET 0.000000 0.000000 0.000000 
							}
						}
					}
				}
			}
		}
	}
}
MOTION
Frames: 12
Frame Time: 0.041667
-1.460706 15.791229 -3.069470 38.453615 29.859513 105.195996 9.208000 -36.250030 -100.500113 1.806827 11.605379 28.653976 -1.045957 -23.871737 16.304496 0.568400 4.828500 13.420200 -11.103706 -11.451286 -127.343769 -10.099373 -15.837196 58.461545 0.517380 -6.204162 -7.409711 -0.408000 -4.100500 11.359700 17.408803 -0.230282 17.213709 4.948327 1.390923 4.339921 3.555244 -13.242735 -12.252259 -0.517100 -7.668800 1.195500 -86.364540 -2.118447 75.378672 67.547040 -60.606639 -40.953676 1.110407 0.147081 0.923269 -7.125000 0.000000 0.000000 -18.295687 57.223814 -50.922412 -16.377523 23.710136 -2.303273 -1.134721 0.509786 -0.426282 7.125000 0.000000 0.000000 
-1.456849 15.794295 -3.070558 38.393919 29.727514 105.187857 9.077204 -36.240035 -100.486333 1.792995 11.578376 28.569004 -1.062929 -23.981720 16.393087 0.513200 4.591800 12.747900 -11.241625 -11.451268 -127.325569 -10.088203 -15.830151 58.423281 0.533938 -6.317278 -7.354049 -0.360400 -3.856700 10.673900 17.361513 -0.236361 17.233284 4.971352 1.383606 4.387248 3.673413 -13.255361 -12.316042 -0.478400 -7.679300 1.192000 -86.366163 -2.147653 75.371648 67.591248 -60.615468 -40.990728 1.109232 0.150279 0.783812 -7.125000 0.000000 0.000000 -18.277968 57.185293 -50.792492 -16.434667 23.793155 -2.325697 -1.147194 0.493705 -0.441259 7.125000 0.000000 0.000000 
-1.452793 15.796471 -3.072833 38.393750 29.653716 105.284927 9.142453 -36.242265 -100.612039 1.783255 11.555924 28.502785 -1.063959 -24.034917 16.610421 0.496800 4.519100 12.541800 -11.433340 -11.524859 -127.306791 -10.071174 -15.821174 58.370239 0.540172 -6.382360 -7.448471 -0.367800 -3.895600 10.783200 17.355803 -0.254893 17.197282 4.963854 1.371945 4.445576 3.715807 -13.237075 -12.350556 -0.464400 -7.671800 1.189100 -86.353530 -2.119051 75.372161 67.776972 -60.650815 -41.147499 1.106128 0.148527 0.679339 -7.125000 0.000000 0.000000 -18.299330 57.156567 -50.755672 -16.472561 23.853445 -2.341135 -1.142940 0.490617 -0.366587 7.125000 0.000000 0.000000 
-1.449925 15.799438 -3.075701 38.424917 29.686481 105.390300 9.512579 -36.240097 -100.783976 1.778906 11.537381 28.445616 -1.079345 -24.088496 16.498501 0.438300 4.248200 11.775900 -11.404400 -11.563609 -127.360051 -10.058723 -15.815382 58.328337 0.535042 -6.359405 -7.526775 -0.374300 -3.929300 10.877900 17.415023 -0.261726 17.127361 4.938074 1.371387 4.473378 3.619397 -13.192573 -12.378211 -0.490000 -7.650600 1.175000 -86.342561 -2.080847 75.383390 67.921030 -60.678031 -41.268969 1.104194 0.148876 0.592968 -7.125000 0.000000 0.000000 -18.344474 57.110934 -50.634951 -16.487423 23.881974 -2.347884 -1.128058 0.499664 -0.382260 7.125000 0.000000 0.000000 
-1.448046 15.802504 -3.078371 38.439263 29.725500 105.438570 9.874234 -36.243420 -100.903049 1.773648 11.519709 28.388377 -1.085972 -24.066217 16.229613 0.381000 3.964200 10.975900 -11.325487 -11.572934 -127.396616 -10.049761 -15.810999 58.296031 0.530691 -6.329485 -7.540525 -0.395800 -4.039400 11.187500 17.491883 -0.255739 17.064530 4.932260 1.377225 4.490146 3.650159 -13.189554 -12.501966 -0.463700 -7.656200 1.133700 -86.334528 -2.068027 75.430484 67.920047 -60.677082 -41.269603 1.103941 0.150829 0.541733 -7.125000 0.000000 0.000000 -18.338533 57.046132 -50.333188 -16.512831 23.926347 -2.362095 -1.122399 0.495901 -0.559861 7.125000 0.000000 0.000000 
-1.444782 15.805768 -3.080745 38.453732 29.713956 105.449733 9.747284 -36.253953 -100.870590 1.762447 11.499996 28.333469 -1.068977 -24.042283 16.514014 0.401300 4.067200 11.265900 -11.233848 -11.575409 -127.437449 -10.049748 -15.811667 58.291763 0.538770 -6.367312 -7.426655 -0.367100 -3.891700 10.772100 17.540576 -0.232384 17.023163 4.937814 1.391178 4.506960 3.670719 -13.259187 -12.604889 -0.450800 -7.699000 1.097300 -86.326050 -2.121258 75.556850 67.726881 -60.638286 -41.115089 1.103051 0.145262 0.522643 -7.125000 0.000000 0.000000 -18.307914 56.894026 -49.959821 -16.566770 24.010641 -2.389388 -1.127455 0.476128 -0.756498 7.125000 0.000000 0.000000 
-1.440134 15.807944 -3.083119 38.414704 29.602585 105.416256 9.296526 -36.238517 -100.769247 1.745231 11.481426 28.292312 -0.980076 -23.808673 17.429940 0.546700 4.737100 13.160200 -11.243561 -11.570201 -127.470700 -10.046436 -15.809371 58.277254 0.547683 -6.410129 -7.311997 -0.304500 -3.547600 9.807400 17.528470 -0.185765 17.014851 4.982383 1.414847 4.524306 3.494230 -13.313582 -12.698638 -0.507900 -7.734300 1.045400 -86.358237 -2.198596 75.677170 67.356139 -60.562452 -40.813776 1.104347 0.137672 0.584750 -7.125000 0.000000 0.000000 -18.433517 56.799518 -49.989691 -16.533397 23.948356 -2.378472 -1.130445 0.473169 -0.606370 7.125000 0.000000 0.000000 
-1.435881 15.809131 -3.086481 38.346837 29.484836 105.399682 9.158727 -36.211182 -100.805731 1.729802 11.466039 28.260482 -0.853759 -23.378966 18.222334 0.738000 5.488200 15.306400 -11.347367 -11.582287 -127.480537 -10.031700 -15.799809 58.223883 0.560327 -6.470870 -7.156165 -0.142000 -2.428500 6.691600 17.489751 -0.158073 17.012987 5.010281 1.427226 4.547856 3.350189 -13.315760 -12.765688 -0.558900 -7.740700 1.009700 -86.379937 -2.238429 75.727763 67.162234 -60.521057 -40.654395 1.107270 0.137471 0.649028 -7.125000 0.000000 0.000000 -18.662635 56.834678 -50.207692 -16.439185 23.786086 -2.342618 -1.130843 0.482261 -0.355537 7.125000 0.000000 0.000000 
-1.432123 15.809131 -3.090042 38.289999 29.417379 105.401176 9.058811 -36.168338 -100.840780 1.725454 11.459354 28.240484 -0.850188 -23.425855 18.440808 0.747200 5.521600 15.402600 -11.459962 -11.611100 -127.462788 -10.009323 -15.785671 58.145856 0.564297 -6.478394 -7.063693 -0.079800 -1.822300 5.014800 17.459738 -0.152860 17.010403 5.006569 1.428657 4.559824 3.287537 -13.292118 -12.698012 -0.594200 -7.724900 1.037800 -86.380920 -2.270039 75.723250 67.096886 -60.507121 -40.599797 1.108764 0.139010 0.621523 -7.125000 0.000000 0.000000 -18.854465 56.804245 -50.126685 -16.415544 23.737925 -2.338259 -1.130907 0.478358 -0.403458 7.125000 0.000000 0.000000 
-1.428463 15.805471 -3.092712 38.255853 29.350248 105.381857 8.842909 -36.148860 -100.801106 1.724035 11.457576 28.235017 -0.870979 -23.578480 18.595703 0.723100 5.433700 15.149900 -11.603603 -11.661241 -127.397657 -9.985972 -15.771390 58.073192 0.538445 -6.327588 -7.309622 -0.344600 -3.772200 10.436700 17.452571 -0.161057 16.997621 5.010311 1.422921 4.564386 3.264966 -13.268552 -12.640999 -0.606100 -7.709400 1.062200 -86.383289 -2.272506 75.698520 66.972241 -60.481782 -40.495946 1.107958 0.136276 0.592673 -7.125000 0.000000 0.000000 -19.000174 56.935522 -50.441630 -16.336171 23.616643 -2.311604 -1.116024 0.488332 0.076372 7.125000 0.000000 0.000000 
-1.425793 15.804977 -3.095482 38.268725 29.316124 105.381072 8.745846 -36.169717 -100.809733 1.724080 11.457237 28.238357 -0.871224 -23.641611 18.804931 0.724600 5.439200 15.165600 -11.638334 -11.693199 -127.373903 -9.976388 -15.766135 58.046139 0.514839 -6.201830 -7.561586 -0.755300 -5.550700 15.486300 17.473379 -0.150423 16.977499 5.013386 1.428866 4.592622 3.309687 -13.303008 -12.697264 -0.581500 -7.730500 1.047100 -86.354328 -2.294076 75.793327 66.918873 -60.470243 -40.453972 1.107153 0.137634 0.618642 -7.125000 0.000000 0.000000 -19.132216 56.957350 -50.685211 -16.240557 23.460799 -2.276864 -1.104891 0.500328 0.501080 7.125000 0.000000 0.000000 
-1.423419 15.809329 -3.098350 38.295794 29.310799 105.352106 8.585007 -36.201808 -100.751104 1.725186 11.457278 28.242315 -0.892069 -23.792974 18.961813 0.707100 5.374600 14.980100 -11.631097 -11.708529 -127.318299 -9.976516 -15.767142 58.049224 0.519018 -6.248741 -7.622728 -0.581300 -4.882100 13.572600 17.495213 -0.138490 16.966689 4.980438 1.437492 4.597760 3.384447 -13.318857 -12.830508 -0.538000 -7.746300 1.006000 -86.297585 -2.329482 75.916332 67.031444 -60.493403 -40.548000 1.107918 0.145176 0.630711 -7.125000 0.000000 0.000000 -19.213369 56.919396 -50.746331 -16.175701 23.348770 -2.252483 -1.100795 0.507587 0.794440 7.125000 0.000000 0.000000 
